<svg xmlns="http://www.w3.org/2000/svg" xmlns:xlink="http://www.w3.org/1999/xlink" version="1.1" x="0px" y="0px" viewBox="0 0 1000 1250" style="enable-background:new 0 0 1000 1000;" xml:space="preserve"><g><g><g><g><path d="M246.8,699.1L246.8,699.1c0-2-0.1-4.9,0-8.6c0.1-7.4,0.6-18.1,2.1-30.9c0.7-6.4,1.7-13.3,2.9-20.6      c1.3-7.3,2.8-14.9,4.8-22.8c1.9-7.8,4.2-15.9,6.9-23.9c2.7-8,5.8-16.1,9.4-24c3.6-7.9,7.5-15.5,11.9-22.9      c4.3-7.3,9.1-14.2,14.1-20.6c5-6.4,10.3-12.3,15.6-17.6c5.3-5.3,10.8-9.9,16-13.9c5.2-4,10.3-7.3,14.8-10.2      c2.3-1.3,4.5-2.7,6.5-3.8c2.1-1.1,3.9-2.2,5.7-3c1.7-0.9,3.3-1.6,4.7-2.3c1.4-0.6,2.5-1.1,3.5-1.6c1.7-0.7,2.7-1.2,2.9-1.3      c-0.2,0.1-1.3,0.4-3,1c-1,0.3-2.2,0.7-3.7,1.2c-1.4,0.5-3.1,1.1-4.9,1.8c-1.8,0.7-3.8,1.5-6,2.4c-2.2,0.9-4.5,2-7,3.1      c-4.9,2.4-10.4,5.2-16.2,8.8c-5.8,3.5-11.8,7.7-17.9,12.6c-6.1,4.8-12.2,10.4-18.2,16.5c-5.9,6.1-11.7,12.9-17.1,20.1      c-5.4,7.2-10.4,14.9-15.1,22.8c-4.6,7.9-8.8,16.1-12.6,24.3c-3.8,8.2-7.1,16.5-10,24.5c-2.9,8.1-5.4,16-7.6,23.6      c-2.2,7.6-3.9,14.8-5.4,21.6c-3,13.5-4.7,24.9-5.7,33c-0.5,4-0.8,7.3-1,9.5c0,0.4-0.1,0.8-0.1,1.2h-58.3      c0-166.5,152.1-301.4,339.8-301.4s339.8,134.9,339.8,301.4H246.8z"/></g></g><g><g><path d="M892.5,764.2H104.6c-12.9,0-23.3-10.4-23.3-23.3c0-12.9,10.4-23.3,23.3-23.3h787.9      c12.9,0,23.3,10.4,23.3,23.3C915.8,753.8,905.4,764.2,892.5,764.2z"/></g></g><g><g><circle cx="496.3" cy="357.3" r="32.7"/></g></g></g><g><path d="M888.4,808.2h-459c-8.3,0-15-6.7-15-15s6.7-15,15-15h459c8.3,0,15,6.7,15,15S896.7,808.2,888.4,808.2z"/></g><path d="M664.9,277.6c7,19.4,5.2,36-3,47.2c-7.4,11.3-21.2,17.2-20.5,17.3c-0.8-0.1,5.1-6.9,4.7-19.1   c0.3-12.1-5.8-29.6-12.8-49c-7-19.4-5.2-36,3-47.2c7.4-11.3,21.2-17.2,20.5-17.3c0.8,0.1-5.1,6.9-4.7,19.1   C651.8,240.7,657.9,258.2,664.9,277.6z"/><path d="M670.3,343.8c-7.1,19.3-5.4,35.9,2.7,47.2c7.4,11.3,21.2,17.3,20.4,17.4c0.8-0.1-5.1-7-4.6-19.2   c-0.2-12.1,5.9-29.6,13.1-49c7.1-19.3,5.4-35.9-2.7-47.2c-7.4-11.3-21.2-17.3-20.4-17.4c-0.8,0.1,5.1,7,4.6,19.2   C683.6,306.9,677.4,324.4,670.3,343.8z"/><path d="M143.2,541.2c8.7,17.4,8.8,33.2,2.3,44.7c-5.8,11.4-18.1,18.5-17.4,18.5c-0.7,0,4.1-7.1,2.3-18.5   c-1-11.4-8.7-27.2-17.4-44.7s-8.8-33.2-2.3-44.7c5.8-11.4,18.1-18.5,17.4-18.5c0.7,0-4.1,7.1-2.3,18.5   C126.9,508,134.5,523.8,143.2,541.2z"/></g><text x="0" y="1015" fill="#000000" font-size="5px" font-weight="bold" font-family="'Helvetica Neue', Helvetica, Arial-Unicode, Arial, Sans-serif">Created by leo-graph.com</text><text x="0" y="1020" fill="#000000" font-size="5px" font-weight="bold" font-family="'Helvetica Neue', Helvetica, Arial-Unicode, Arial, Sans-serif">from the Noun Project</text></svg>